<svg width="18" height="18" viewBox="0 0 18 18" fill="none" xmlns="http://www.w3.org/2000/svg">
<path d="M9 16.5C13.1421 16.5 16.5 13.1421 16.5 9C16.5 4.85786 13.1421 1.5 9 1.5C4.85786 1.5 1.5 4.85786 1.5 9C1.5 13.1421 4.85786 16.5 9 16.5Z" stroke="#475569" stroke-width="1.5" stroke-linecap="round" stroke-linejoin="round"/>
<path d="M8.375 8.375C8.54076 8.375 8.69973 8.44085 8.81694 8.55806C8.93415 8.67527 9 8.83424 9 9V12.125C9 12.2908 9.06585 12.4497 9.18306 12.5669C9.30027 12.6842 9.45924 12.75 9.625 12.75" stroke="#475569" stroke-width="1.5" stroke-linecap="round" stroke-linejoin="round"/>
<path d="M8.6875 6.5C9.20527 6.5 9.625 6.08027 9.625 5.5625C9.625 5.04473 9.20527 4.625 8.6875 4.625C8.16973 4.625 7.75 5.04473 7.75 5.5625C7.75 6.08027 8.16973 6.5 8.6875 6.5Z" fill="#475569"/>
</svg>